<?xml version="1.0" encoding="utf-8"?>
<!-- Generator: Adobe Illustrator 23.0.3, SVG Export Plug-In . SVG Version: 6.00 Build 0)  -->
<svg version="1.1" id="Layer_2" xmlns="http://www.w3.org/2000/svg" xmlns:xlink="http://www.w3.org/1999/xlink" x="0px" y="0px"
	 viewBox="0 0 1080 1080" style="enable-background:new 0 0 1080 1080;" xml:space="preserve">
<style type="text/css">
	.st0{fill:#FFBE55;}
	.st1{fill:#F7F7F7;}
	.st2{fill:#FFFFFF;}
	.st3{opacity:0.1;fill:#FFBE55;}
	.st4{fill:none;stroke:#FFBE55;stroke-miterlimit:10;}
	.st5{fill:#F2F2F2;}
	.st6{fill:#FCD2B1;}
	.st7{fill:#9ACFF7;}
	.st8{fill:#CCE9FF;}
	.st9{fill:#2A94F4;}
	.st10{fill:#0D517F;}
	.st11{fill:#0E538C;}
	.st12{fill:#0B3A54;}
	.st13{fill:#FFE3CA;}
	.st14{fill:#0B4870;}
	.st15{fill:#125D87;}
	.st16{fill:#EDBC9A;}
	.st17{fill:#1989DD;}
	.st18{fill:#F7C39F;}
	.st19{fill:#34A2F4;}
	.st20{fill:#B6E7FF;}
	.st21{fill:#85DDFF;}
	.st22{fill:#41AAF7;}
</style>
<g id="Settings">
	<g>
		<g>
			<path class="st0" d="M820.78,615.83c-4.68,0-9.39-0.27-14.02-0.81c-4.13-0.48-7.18-4.1-6.94-8.26
				c0.61-10.81-5.66-20.87-15.6-25.03c-9.47-3.97-21.82-1.19-28.75,6.47c-2.8,3.09-7.53,3.46-10.76,0.85
				c-7.14-5.75-13.62-12.3-19.26-19.48c-2.53-3.21-2.15-7.89,0.86-10.65c7.89-7.23,10.48-18.69,6.45-28.52
				c-3.99-9.71-13.54-16.06-23.71-15.8c-3.95,0-8.63-2.86-9.09-6.96c-1.03-9.24-1.02-18.56,0.05-27.68
				c0.51-4.23,3.87-7.08,8.15-6.94c11.27,0,21.15-6.12,25.13-15.59c4.17-9.94,1.58-21.5-6.45-28.77c-3.07-2.8-3.44-7.52-0.84-10.75
				c5.75-7.18,12.38-13.73,19.69-19.47c3.23-2.52,7.91-2.12,10.67,0.9c6.87,7.55,19.14,10.35,28.55,6.5
				c9.82-4.02,16.16-13.91,15.79-24.61c-0.14-4.09,2.94-7.64,7-8.09c9.06-1.01,18.27-0.98,27.38,0.07c4.14,0.48,7.19,4.11,6.94,8.26
				c-0.61,10.8,5.65,20.86,15.58,25.04c9.49,3.96,21.86,1.18,28.76-6.46c2.79-3.09,7.51-3.47,10.75-0.87
				c7.1,5.68,13.58,12.24,19.29,19.48c2.54,3.22,2.16,7.9-0.86,10.66c-7.88,7.23-10.47,18.69-6.45,28.52
				c3.93,9.6,13.31,15.8,23.89,15.8c3.84,0,8.44,2.86,8.9,6.97v0c1.03,9.24,1.02,18.56-0.05,27.68c-0.49,4.15-4.21,7.27-8.3,6.93
				l-1.43-0.04c-10.16,0-19.65,6.28-23.56,15.63c-4.17,9.93-1.57,21.49,6.46,28.77c3.08,2.79,3.45,7.51,0.85,10.75
				c-5.79,7.21-12.42,13.76-19.69,19.47c-3.29,2.54-7.87,2.16-10.67-0.89c-6.88-7.55-19.16-10.35-28.57-6.5
				c-9.82,4.02-16.16,13.91-15.78,24.6c0.14,4.09-2.94,7.65-7,8.1C829.72,615.58,825.23,615.83,820.78,615.83z M774.96,577.62
				c3.51,0,6.98,0.64,10.15,1.97c10.85,4.54,17.69,15.51,17.02,27.3c-0.17,2.93,1.98,5.49,4.89,5.83
				c8.86,1.03,17.98,1.06,26.86,0.07c2.87-0.32,5.04-2.83,4.94-5.71c-0.42-11.65,6.5-22.43,17.21-26.82
				c10.27-4.19,23.66-1.15,31.15,7.09c1.97,2.15,5.21,2.42,7.53,0.62c7.13-5.59,13.63-12.02,19.31-19.09
				c1.84-2.28,1.58-5.61-0.6-7.58c-8.76-7.94-11.59-20.55-7.05-31.38c4.28-10.2,14.62-17.05,25.73-17.05l1.52,0.04
				c2.93,0.23,5.53-1.96,5.88-4.89c1.05-8.95,1.07-18.09,0.05-27.15v0c-0.31-2.76-3.8-4.91-6.6-4.91
				c-11.52,0-21.74-6.77-26.04-17.24c-4.38-10.73-1.56-23.23,7.03-31.11c2.13-1.95,2.4-5.25,0.61-7.52
				c-5.59-7.1-11.96-13.53-18.91-19.1c-2.28-1.83-5.61-1.57-7.58,0.61c-7.53,8.34-21.02,11.37-31.37,7.05
				c-10.84-4.56-17.66-15.53-17-27.31c0.17-2.93-1.98-5.49-4.89-5.83c-8.93-1.03-17.97-1.06-26.86-0.07
				c-2.87,0.32-5.04,2.82-4.94,5.71c0.41,11.66-6.51,22.44-17.23,26.83c-10.27,4.19-23.65,1.15-31.14-7.09
				c-1.94-2.13-5.25-2.41-7.53-0.63c-7.17,5.63-13.67,12.05-19.31,19.09c-1.83,2.28-1.57,5.61,0.6,7.58
				c8.75,7.93,11.58,20.54,7.03,31.39c-4.34,10.33-15.05,17.01-27.3,17.01c-3.13-0.09-5.45,1.87-5.81,4.9
				c-1.05,8.95-1.06,18.08-0.05,27.15c0.31,2.76,3.88,4.9,6.76,4.9c11.13-0.29,21.52,6.64,25.88,17.24
				c4.4,10.72,1.57,23.22-7.03,31.11c-2.12,1.95-2.39,5.25-0.61,7.51c5.53,7.04,11.89,13.47,18.89,19.11
				c2.28,1.84,5.62,1.57,7.59-0.6C758.98,580.85,767.05,577.62,774.96,577.62z M821.11,535.74c-22.81,0-41.37-18.56-41.37-41.37
				c0-22.81,18.56-41.37,41.37-41.37s41.37,18.56,41.37,41.37C862.48,517.18,843.92,535.74,821.11,535.74z M821.11,455.31
				c-21.54,0-39.06,17.52-39.06,39.06s17.52,39.06,39.06,39.06c21.53,0,39.05-17.52,39.05-39.06S842.65,455.31,821.11,455.31z"/>
		</g>
	</g>
</g>
<g id="Settings_1_">
	<g>
		<g>
			<path class="st0" d="M308.07,771.82c-5.24,2.33-10.67,4.38-16.13,6.08c-4.87,1.53-10.1-1.02-11.9-5.8
				c-4.71-12.43-16.76-20.58-29.98-20.29c-12.6,0.27-25.07,9.55-29.02,21.6c-1.6,4.86-6.72,7.63-11.65,6.32
				c-10.87-2.88-21.41-7-31.31-12.25c-4.44-2.33-6.35-7.77-4.35-12.38c5.24-12.05,2.43-26.2-6.99-35.21
				c-9.32-8.9-23.2-11.26-34.47-5.9c-4.43,1.97-11.1,1.1-13.66-3.27c-5.77-9.85-10.4-20.31-13.75-31.07
				c-1.54-4.99,0.81-9.88,5.68-11.85c12.64-5.62,20.67-17.41,20.41-30.02c-0.28-13.23-8.96-24.91-21.59-29.05
				c-4.84-1.6-7.61-6.71-6.31-11.63c2.87-10.92,7.03-21.57,12.37-31.66c2.37-4.43,7.82-6.33,12.41-4.32
				c11.47,5.04,26.63,2.06,35.26-6.95c9.01-9.41,11.19-23.67,5.43-35.48c-2.19-4.52-0.52-10.04,3.82-12.57
				c9.66-5.65,20.01-10.21,30.75-13.58c4.88-1.52,10.11,1.03,11.9,5.8c4.7,12.42,16.74,20.58,29.96,20.31
				c12.62-0.29,25.1-9.58,29.03-21.59c1.59-4.85,6.69-7.63,11.62-6.33c10.79,2.83,21.34,6.95,31.34,12.22
				c4.45,2.34,6.36,7.78,4.35,12.39c-5.23,12.03-2.42,26.18,6.99,35.2c9.2,8.8,22.81,11.08,34.68,5.8c4.31-1.92,10.89-1,13.46,3.37
				l0,0c5.77,9.85,10.4,20.3,13.75,31.07c1.52,4.9-1.1,10.25-5.85,11.91l-1.62,0.67c-11.4,5.07-18.9,16.85-18.63,29.29
				c0.28,13.22,8.96,24.89,21.6,29.04c4.85,1.59,7.62,6.7,6.31,11.63c-2.9,10.98-7.06,21.63-12.37,31.66
				c-2.42,4.49-7.75,6.34-12.41,4.32c-11.48-5.04-26.65-2.05-35.28,6.95c-9.01,9.41-11.19,23.66-5.42,35.45
				c2.2,4.52,0.52,10.04-3.81,12.57C317.98,767.08,313.06,769.6,308.07,771.82z M237.62,751.82c3.93-1.75,8.14-2.77,12.37-2.86
				c14.43-0.32,27.57,8.57,32.71,22.13c1.27,3.38,4.96,5.17,8.39,4.09c10.46-3.26,20.69-7.78,30.16-13.32
				c3.06-1.78,4.24-5.68,2.69-8.87c-6.29-12.86-3.9-28.4,5.93-38.67c9.42-9.82,25.96-13.09,38.47-7.59
				c3.28,1.42,7.05,0.11,8.76-3.06c5.21-9.83,9.29-20.28,12.13-31.04c0.92-3.48-1.03-7.08-4.45-8.2
				c-13.78-4.53-23.25-17.26-23.56-31.68c-0.29-13.57,7.89-26.42,20.35-31.96l1.73-0.72c3.4-1.2,5.22-4.96,4.15-8.41
				c-3.29-10.56-7.83-20.82-13.49-30.48l0,0c-1.73-2.94-6.71-3.61-9.85-2.21c-12.93,5.75-27.76,3.26-37.8-6.35
				c-10.27-9.84-13.34-25.27-7.63-38.39c1.42-3.25,0.07-7.08-3.07-8.74c-9.81-5.18-20.16-9.21-30.74-11.99
				c-3.48-0.92-7.08,1.04-8.19,4.47c-4.29,13.11-17.9,23.23-31.67,23.55c-14.43,0.29-27.56-8.61-32.68-22.15
				c-1.26-3.37-4.95-5.17-8.39-4.09c-10.54,3.3-20.68,7.78-30.16,13.32c-3.06,1.79-4.24,5.68-2.69,8.87
				c6.28,12.87,3.89,28.42-5.94,38.69c-9.42,9.82-25.96,13.08-38.46,7.58c-3.24-1.42-7.09-0.08-8.76,3.05
				c-5.24,9.89-9.32,20.33-12.13,31.05c-0.92,3.47,1.04,7.08,4.45,8.21c13.77,4.52,23.23,17.26,23.54,31.7
				c0.29,13.75-8.4,26.58-22.13,32.69c-3.55,1.45-5.18,4.81-4.08,8.39c3.29,10.55,7.83,20.81,13.49,30.48
				c1.72,2.94,6.8,3.56,10.02,2.12c12.34-5.88,27.45-3.29,37.62,6.43c10.28,9.83,13.35,25.26,7.63,38.39
				c-1.41,3.25-0.06,7.08,3.07,8.73c9.72,5.14,20.05,9.18,30.72,12.01c3.48,0.92,7.08-1.04,8.21-4.46
				C221.31,763.42,228.76,755.76,237.62,751.82z M268.49,681.83c-25.59,11.38-55.66-0.18-67.04-25.76
				c-11.38-25.59,0.18-55.66,25.76-67.04c25.59-11.38,55.66,0.18,67.04,25.76C305.63,640.37,294.08,670.45,268.49,681.83z
				 M228.37,591.62c-24.15,10.74-35.06,39.13-24.32,63.28s39.13,35.06,63.28,24.32c24.15-10.74,35.06-39.13,24.32-63.28
				C280.91,591.79,252.53,580.88,228.37,591.62z"/>
		</g>
	</g>
</g>
<g>
	<rect x="269.78" y="142.97" class="st1" width="540.43" height="794.07"/>
	<rect x="299.95" y="176.29" class="st2" width="480.1" height="727.43"/>
	<path class="st3" d="M740.05,344.62H339.95c-6.6,0-12-5.4-12-12v-81.72c0-6.6,5.4-12,12-12h400.11c6.6,0,12,5.4,12,12v81.72
		C752.05,339.22,746.65,344.62,740.05,344.62z"/>
	<path class="st3" d="M462.51,385.38H335.73c-4.28,0-7.78-3.5-7.78-7.78v0c0-4.28,3.5-7.78,7.78-7.78h126.78
		c4.28,0,7.78,3.5,7.78,7.78v0C470.29,381.88,466.79,385.38,462.51,385.38z"/>
	<path class="st3" d="M744.27,430.31H335.73c-4.28,0-7.78-3.5-7.78-7.78l0,0c0-4.28,3.5-7.78,7.78-7.78h408.54
		c4.28,0,7.78,3.5,7.78,7.78l0,0C752.05,426.8,748.55,430.31,744.27,430.31z"/>
	<path class="st3" d="M744.27,466.1H335.73c-4.28,0-7.78-3.5-7.78-7.78v0c0-4.28,3.5-7.78,7.78-7.78h408.54
		c4.28,0,7.78,3.5,7.78,7.78v0C752.05,462.6,748.55,466.1,744.27,466.1z"/>
	<path class="st3" d="M744.27,501.89H335.73c-4.28,0-7.78-3.5-7.78-7.78v0c0-4.28,3.5-7.78,7.78-7.78h408.54
		c4.28,0,7.78,3.5,7.78,7.78v0C752.05,498.39,748.55,501.89,744.27,501.89z"/>
	<path class="st3" d="M744.27,537.69H335.73c-4.28,0-7.78-3.5-7.78-7.78l0,0c0-4.28,3.5-7.78,7.78-7.78h408.54
		c4.28,0,7.78,3.5,7.78,7.78l0,0C752.05,534.19,748.55,537.69,744.27,537.69z"/>
	<path class="st3" d="M744.27,573.48H335.73c-4.28,0-7.78-3.5-7.78-7.78l0,0c0-4.28,3.5-7.78,7.78-7.78h408.54
		c4.28,0,7.78,3.5,7.78,7.78l0,0C752.05,569.98,748.55,573.48,744.27,573.48z"/>
	<path class="st3" d="M744.27,609.28H335.73c-4.28,0-7.78-3.5-7.78-7.78l0,0c0-4.28,3.5-7.78,7.78-7.78h408.54
		c4.28,0,7.78,3.5,7.78,7.78l0,0C752.05,605.78,748.55,609.28,744.27,609.28z"/>
	<path class="st3" d="M744.27,645.07H335.73c-4.28,0-7.78-3.5-7.78-7.78v0c0-4.28,3.5-7.78,7.78-7.78h408.54
		c4.28,0,7.78,3.5,7.78,7.78v0C752.05,641.57,748.55,645.07,744.27,645.07z"/>
	<path class="st3" d="M744.27,680.87H335.73c-4.28,0-7.78-3.5-7.78-7.78v0c0-4.28,3.5-7.78,7.78-7.78h408.54
		c4.28,0,7.78,3.5,7.78,7.78v0C752.05,677.36,748.55,680.87,744.27,680.87z"/>
	<path class="st3" d="M744.27,716.66H335.73c-4.28,0-7.78-3.5-7.78-7.78l0,0c0-4.28,3.5-7.78,7.78-7.78h408.54
		c4.28,0,7.78,3.5,7.78,7.78l0,0C752.05,713.16,748.55,716.66,744.27,716.66z"/>
	<path class="st3" d="M566.87,752.46H335.73c-4.28,0-7.78-3.5-7.78-7.78l0,0c0-4.28,3.5-7.78,7.78-7.78h231.14
		c4.28,0,7.78,3.5,7.78,7.78l0,0C574.65,748.95,571.15,752.46,566.87,752.46z"/>
	<circle class="st0" cx="693.95" cy="819.23" r="62.77"/>
	<circle class="st4" cx="699.2" cy="813.34" r="62.77"/>
</g>
<path class="st5" d="M1029.08,976.99H62.92c-5.21,0-9.47-4.26-9.47-9.47v-36.24c0-5.21,4.26-9.47,9.47-9.47h966.15
	c5.21,0,9.47,4.26,9.47,9.47v36.24C1038.55,972.72,1034.29,976.99,1029.08,976.99z"/>
<path class="st6" d="M461.75,606.27l2.47,21.58c0,0,14.98,0.2,20.74-6.41c-1.05-3.98-3.73-7-3.73-7s1.42,0.28,6.49-1.05
	c-3.28-2.49-18.77-11.26-18.77-11.26L461.75,606.27z"/>
<path class="st6" d="M488.49,618.52c0,0-3.06-8.07-6.23-7.25s-15.34,11.24-11.07,15.41c4.74,4.63,3.95,8.96,3.95,8.96
	S490.05,629.54,488.49,618.52z"/>
<g>
	<g>
		<g>
			<path class="st7" d="M729.32,677.57h-46.79c-2.42,0-4.38-1.96-4.38-4.38v-27.32c0-2.42,1.97-4.38,4.38-4.38h46.79
				c2.42,0,4.38,1.97,4.38,4.38v27.32C733.7,675.61,731.73,677.57,729.32,677.57z M684.15,671.57h43.55v-24.08h-43.55V671.57z"/>
		</g>
		<path class="st8" d="M753.94,663.99v53.79c0,2.45-2,4.45-4.45,4.45h-87.14c-2.45,0-4.45-2-4.45-4.45v-53.79
			c0-2.45,2-4.45,4.45-4.45h87.14C751.94,659.54,753.94,661.54,753.94,663.99z"/>
		<path class="st7" d="M753.94,663.99v26.9H657.9v-26.9c0-2.45,2-4.45,4.45-4.45h87.14C751.94,659.54,753.94,661.54,753.94,663.99z"
			/>
		<rect x="693.95" y="686.85" class="st9" width="23.94" height="12.36"/>
	</g>
	<path class="st10" d="M595.3,613.87L584.34,932.6h22.82c0,0,34-148.9,17.91-173.88c14.95-45.97,38.59-143.19,38.59-143.19
		L595.3,613.87z"/>
	<path class="st11" d="M601.85,615.53l16.12,33.37l65.17,290.12h22.78c0,0-0.18-146.79-24.78-171.87
		c-2.9-54.11,1.2-125.5-10.49-162.4C624,594.26,601.85,615.53,601.85,615.53z"/>
	<path class="st12" d="M619.71,465.1c-18.9,32.87-49.15,87.24-83.26,104.55c2.05,7.45,6.42,14.13,6.42,14.13
		s53.83-19.24,71.09-46.36C631.22,510.3,619.71,465.1,619.71,465.1z"/>
	<path class="st6" d="M705.34,625.77c-3.56,2.08-11.38,29.66-11.38,29.66s14.16,3.1,22.49-3.84c5.27-16.38-5.55-33.04-5.55-33.04
		L705.34,625.77z"/>
	<path class="st6" d="M629.17,402.97c-0.5,5.56-4.09,24.86-4.09,24.86l38.59-19.62l-1.84-4.95l-10.02-20.89c0,0-9.72,0.33-10.7,0
		C640.12,382.04,629.17,402.97,629.17,402.97z"/>
	<path class="st11" d="M670.41,321.81c9.72,17.63,21.88,6.08,14.28,27.65c2.38,3.65,15.5,11.55-11.24,38.59
		c-8.51,13.68-11.63,15.19-11.63,15.19s-6.15-8.89-10.02-16.15l-18.16-54.96L670.41,321.81z"/>
	<path class="st13" d="M613.86,341.69c0,0-19.82,16.71-8.55,62.97c15.94,2.33,30.71-3.89,30.71-3.89l15.78-13.66
		c0,0-3.34-49.31-20.06-51.25C615.03,333.91,613.86,341.69,613.86,341.69z"/>
	<path class="st11" d="M634.25,344.6c-12.16,0.61-43.53-12.16-32.4-26.13s22.38,4.25,29.97,1.52c7.6-2.74,28.87-15.8,38.59,1.82
		C670.41,321.81,675.88,343.08,634.25,344.6z"/>
	
		<ellipse transform="matrix(0.5829 -0.8125 0.8125 0.5829 -25.8006 681.8633)" class="st13" cx="651.26" cy="366.06" rx="10.16" ry="6.64"/>
	<path class="st11" d="M633.64,339.67c-1.73,14.27-0.88,22.28,1.43,24.63c1.53,3.52,2.53,9.97,2.53,9.97h5.85
		c0,0,8.23-16.5,8.35-21.78c0.11-5.28-2.49-16.95-2.49-16.95L633.64,339.67z"/>
	<path class="st14" d="M670.65,427.83v-24.57c0,0-50.83,18.16-53.7,24.57c-2.87,6.41-26.4,73.11-26.4,73.11
		s-0.09,149.35,0.08,154.49c9.31-11.99,36.19-36.26,36.19-36.26l63.18,36.26c0,0-20.52-77.89-21.44-83.2
		c-0.92-5.31,12.57-58.93,12.57-58.93L670.65,427.83z"/>
	<path class="st15" d="M667.95,430.6c-22.71,2.31-31.51,10.65-31.51,19.92c14.83,32.9,73.21,88.22,65.34,177.33
		c7.41,0.6,17.61,0,17.61,0S752.74,515.4,667.95,430.6z"/>
	<path class="st16" d="M543.5,575.96c-0.21-0.14-0.41-0.27-0.6-0.41c-3.64-2.48-5.04-3.91-6.45-5.91c-1.48-2.1-7.62-5.97-10.58-3.12
		c-2.96,2.84-3.23,8.42-2.53,10.52c0.71,2.1-0.2,11.08,1.28,12.79c1.48,1.71,6.94,4.89,11.49,4.43c4.55-0.45,7.39-5.34,8.41-9.55
		C545.55,580.51,543.5,575.96,543.5,575.96z"/>
	<polygon class="st14" points="584.34,933.16 532.7,955.69 608.83,955.69 607.17,933.16 	"/>
	<polygon class="st14" points="682.44,933.16 630.79,955.69 706.92,955.69 705.26,933.16 	"/>
	<path class="st0" d="M805.16,211.86H679.39c-14.03,0-25.5,11.48-25.5,25.5v31.23c0,14.03,11.48,25.5,25.5,25.5h6.93l-12.94,22.15
		l31.12-22.15h100.66c14.03,0,25.5-11.48,25.5-25.5v-31.23C830.66,223.33,819.19,211.86,805.16,211.86z"/>
	<path class="st0" d="M655.49,99.87h-60.83c-29.49,0-53.61,24.13-53.61,53.61v0c0,29.31,23.83,53.3,53.07,53.6
		c13.68,8.79,30.96,19.7,30.96,19.7l-10.42-19.69h40.84c29.49,0,53.61-24.13,53.61-53.61v0C709.11,124,684.98,99.87,655.49,99.87z"
		/>
</g>
<g>
	<g>
		<path class="st11" d="M434.58,350.07c-7.18-11.05-15.79-23.1-28.77-25.36c-7.95-1.39-16.04,1.28-23.4,4.59
			c-12.89,5.79-25.51,14.47-30.78,27.58c-5.14,12.8-2.34,27.19-0.52,40.86c1.82,13.67,2.13,28.98-6.65,39.61
			c-9.44,11.41-25.87,13.42-39,20.27c-12.67,6.62-22.59,18.34-26.99,31.95c-2.21,6.82-3.02,14.46-0.18,21.04
			c3.1,7.16,10,11.94,17.09,15.2c30.18,13.87,67.92,5.1,92.42-17.33c24.5-22.43,36.5-56.38,36.84-89.59
			c0.12-11.82-1.1-23.84,1.71-35.32c1.57-6.42,4.36-12.49,5.8-18.94L434.58,350.07z"/>
	</g>
	<path class="st17" d="M391.25,480.41c21.15,50.81,46.16,98.59,70.79,130.21c9.59,0.53,15.16-4.89,15.16-4.89
		s-52.58-92.37-48.61-120.77C432.57,456.55,391.25,480.41,391.25,480.41z"/>
	<g>
		
			<rect x="432.37" y="566.23" transform="matrix(0.8611 0.5084 -0.5084 0.8611 371.4666 -150.0354)" class="st8" width="55.9" height="77.2"/>
		
			<rect x="435.9" y="569.34" transform="matrix(0.8611 0.5084 -0.5084 0.8611 371.2147 -150.2948)" class="st2" width="49.55" height="69.8"/>
		<path class="st11" d="M470.86,563.06l20.95,12.37c1.16,0.68,1.54,2.17,0.86,3.33l-3.37,5.71c-0.68,1.16-2.17,1.54-3.33,0.86
			l-20.95-12.37c-1.16-0.68-1.54-2.17-0.86-3.33l3.37-5.71C468.22,562.76,469.71,562.37,470.86,563.06z"/>
		<g>
			<path class="st8" d="M454.62,572.37l36.89,21.78c0.49,0.29,0.65,0.92,0.36,1.41l0,0c-0.29,0.49-0.92,0.65-1.41,0.36l-36.89-21.78
				c-0.49-0.29-0.65-0.92-0.36-1.41l0,0C453.49,572.24,454.13,572.08,454.62,572.37z"/>
			<path class="st8" d="M451.21,578.15l36.89,21.78c0.49,0.29,0.65,0.92,0.36,1.41l0,0c-0.29,0.49-0.92,0.65-1.41,0.36l-36.89-21.78
				c-0.49-0.29-0.65-0.92-0.36-1.41l0,0C450.08,578.02,450.72,577.86,451.21,578.15z"/>
			<path class="st8" d="M447.8,583.92l36.89,21.78c0.49,0.29,0.65,0.92,0.36,1.41l0,0c-0.29,0.49-0.92,0.65-1.41,0.36l-36.89-21.78
				c-0.49-0.29-0.65-0.92-0.36-1.41l0,0C446.67,583.79,447.31,583.63,447.8,583.92z"/>
			<path class="st8" d="M444.39,589.7l36.89,21.78c0.49,0.29,0.65,0.92,0.36,1.41l0,0c-0.29,0.49-0.92,0.65-1.41,0.36l-36.89-21.78
				c-0.49-0.29-0.65-0.92-0.36-1.41l0,0C443.26,589.57,443.9,589.41,444.39,589.7z"/>
			<path class="st8" d="M440.98,595.47l36.89,21.78c0.49,0.29,0.65,0.92,0.36,1.41l0,0c-0.29,0.49-0.92,0.65-1.41,0.36l-36.89-21.78
				c-0.49-0.29-0.65-0.92-0.36-1.41l0,0C439.85,595.35,440.49,595.18,440.98,595.47z"/>
			<path class="st8" d="M437.57,601.25l36.89,21.78c0.49,0.29,0.65,0.92,0.36,1.41l0,0c-0.29,0.49-0.92,0.65-1.41,0.36l-36.89-21.78
				c-0.49-0.29-0.65-0.92-0.36-1.41l0,0C436.44,601.12,437.08,600.96,437.57,601.25z"/>
			<path class="st8" d="M433.87,606.85l24.96,14.74c0.33,0.2,0.37,0.75,0.08,1.24l0,0c-0.29,0.49-0.79,0.73-1.13,0.53l-24.96-14.74
				c-0.33-0.2-0.37-0.75-0.08-1.24l0,0C433.03,606.9,433.54,606.66,433.87,606.85z"/>
		</g>
		<circle class="st0" cx="461.43" cy="635.24" r="6.04"/>
	</g>
	<path class="st0" d="M407.34,918.53l12.23,17.62c2.71,3.9,6.18,7.21,10.2,9.72l15.74,9.82h-39.36l-12.79-15.02v15.02h-5.84v-37.16
		H407.34z"/>
	<path class="st18" d="M425.8,732.64c-1.85,6.64-18.46,185.22-18.46,185.22s-20.31,5.81-19.69,0s-20.92-148.67,6.77-185.22
		C413.49,717.69,425.8,732.64,425.8,732.64z"/>
	<path class="st0" d="M397.18,918.53l12.23,17.62c2.71,3.9,6.18,7.21,10.2,9.72l15.74,9.82h-39.36l-12.79-15.02v15.02h-5.84v-37.16
		H397.18z"/>
	<path class="st6" d="M415.64,732.64c-1.85,6.64-18.46,185.22-18.46,185.22s-20.31,5.81-19.69,0s-20.92-148.67,6.77-185.22
		C403.33,717.69,415.64,732.64,415.64,732.64z"/>
	<path class="st11" d="M385.61,570.81c-14.26,15.74-34.87,31.69-19.1,79.73c6.99,21.31,7.82,44.15,2.83,66.01
		c-6.37,27.93-12.03,62.21-12.03,62.21l71.61,2.01c0,0,22.5-166.13,5.67-209.96C413.7,563.04,385.61,570.81,385.61,570.81z"/>
	<path class="st9" d="M413.46,433.1c8.4,12.21,36.91,55.62,35.28,61.67c-1.94,7.22-14.17,76.04-14.17,76.04h-48.97
		c0,0,6.18-15.77,1.02-26.28c-5.16-10.51-46.24-84.63,5.84-122.91C401.44,425.04,413.46,433.1,413.46,433.1z"/>
	<path class="st6" d="M416.03,414.56c-1.12,8.7-2.52,15.43,1.4,28.06c-11.5-5.05-24.13-15.43-24.97-19.36
		c3.93-9.26,8.14-15.26,4.77-23.2C402.84,400.81,416.03,414.56,416.03,414.56z"/>
	<path class="st13" d="M435,358c5,17,3.76,65.59-9.39,63.56c-13.15-2.02-28.82-8.6-34.89-25.28C384.66,379.6,396.35,328.82,435,358z
		"/>
	<ellipse transform="matrix(0.866 -0.5 0.5 0.866 -144.775 245.9846)" class="st13" cx="386.63" cy="393.15" rx="4.86" ry="7.77"/>
	<path class="st11" d="M378.65,393.83c29.83-8.09,53.47-23.84,59.07-38.5c5.59-14.66-32.33-22.25-39.91-13.65
		S363.08,376.1,378.65,393.83z"/>
	<circle class="st0" cx="390.62" cy="400.06" r="5.01"/>
	<path class="st19" d="M395.63,430.77c-11.08-2.37-25.56,20.98-24.16,25.87c1.4,4.89,37.27,139.65,147.34,130.56
		c0.35-1.4,0-11.18,0-11.18S426.93,588.33,395.63,430.77z"/>
	<path class="st0" d="M310.56,199.86h-68.2c-31.78,0-57.55,25.77-57.55,57.55v0c0,31.78,25.77,57.55,57.55,57.55h21.51
		c16.87,12.57,56.48,41.97,54.93,39.84c-1.35-1.86-15.51-25.29-24.27-39.84h16.03c31.78,0,57.55-25.77,57.55-57.55v0
		C368.11,225.63,342.34,199.86,310.56,199.86z"/>
	<path class="st0" d="M460.93,145.92c0-34.17-27.7-61.87-61.87-61.87s-61.87,27.7-61.87,61.87s27.7,61.87,61.87,61.87
		c3.86,0,7.63-0.37,11.29-1.05l-6.74,32.17l40.28-50.36l-0.03,0.01C454.44,177.46,460.93,162.45,460.93,145.92z"/>
	<path class="st6" d="M517.95,578c0.91-0.27,5.71-0.62,6.27-1.4c0.56-0.78,2.58-6.61,4.26-6.94c1.68-0.34,3.14,9.39,0,14.49
		c-3.02,3.99-5.82,1.97-6.72,2.08s-5.38-0.11-5.38-0.11L517.95,578z"/>
</g>
<g>
	<path class="st20" d="M960.11,975.05c19.86,0,28.24-15.86,31.55-32.69c3.73-18.98,0.99-39.19,0.99-39.19h-65.07
		c0,0-0.1,0.77-0.24,2.15C926.12,917.27,922.2,975.05,960.11,975.05z"/>
	<path class="st21" d="M927.57,903.18c0,1.42,14.57,2.57,32.54,2.57c17.97,0,32.54-1.15,32.54-2.57c0-1.42-14.57-2.57-32.54-2.57
		C942.14,900.6,927.57,901.75,927.57,903.18z"/>
	<path class="st9" d="M872,722.77c0,0,34.32,52.21,54.91,84.08c20.59,31.87,25.98,38.48,28.43,48.78
		c2.45,10.29,4.66,48.29,4.66,48.29h1.52c0,0-0.53-32.25-2.39-43.1c-1.79-10.49,0.13-14.26,1.6-25.29
		c1.47-11.03,3.43-28.68-7.72-40.94c-11.15-12.26-8.21-24.27-12.13-32.35c-3.92-8.09-34.32-17.89-38.24-26.23
		C898.72,727.67,881.56,722.52,872,722.77z"/>
	<path class="st22" d="M872,722.77c0,0,10.79,12.26,18.14,16.42c7.35,4.17,10.79,0.49,16.42,10.54
		c5.64,10.05,5.85,14.46,11.02,19.61c5.16,5.15,11.29,5.39,11.78,16.67c0.49,11.27-2.45,20.83-2.45,20.83S874.21,725.47,872,722.77z
		"/>
	<path class="st9" d="M957.28,903.91h-1.54c0,0-0.46-10.44-4.61-15.51c-2.67-3.27-14.03-6.98-25.26-11.43
		c-6.18-2.45-12.33-5.12-16.96-8.07c-13.06-8.29-25.49-35.01-26.56-39.77c-0.38-1.66-0.54-2.66-0.53-3.35v-0.02
		c0.03-1.28,0.66-1.47,1.76-2.76c0.53-0.62,2.12-0.41,4.06,0.18c5.63,1.72,10.38,5.57,13.32,10.67c2.72,4.71,7.07,10.6,12.4,12.03
		c9.21,2.46,8.45,3.99,11.85,13.36c3.39,9.37,11.96,10.9,22.7,21.96C958.66,892.24,957.28,903.91,957.28,903.91z"/>
	<path class="st22" d="M925.87,876.97c-6.18-2.45-12.33-5.12-16.96-8.07c-13.06-8.29-25.49-35.01-26.56-39.77
		c-0.38-1.66-0.54-2.66-0.53-3.35c0.04,0.31,0.64,4.54,7.44,7.35c7.06,2.91,8.44,2.91,9.36,7.37c0.92,4.45,1.7,9.21,5.38,10.13
		c3.69,0.92,5.99-3.22,8.9,3.53c2.92,6.75,4.31,9.06,6.99,9.98c2.68,0.92,4.72-0.46,5.32,4.76
		C925.57,872.09,925.77,875.11,925.87,876.97z"/>
	<path class="st9" d="M968.56,903.91h1.82c0,0,3.56-64.64,8.47-70.64c3.16-3.87,13.6-10.82,26.91-16.09
		c7.32-2.9,14.6-6.07,20.09-9.56c15.46-9.82,30.19-41.47,31.46-47.11c0.45-1.96,0.64-3.15,0.63-3.97v-0.02
		c-0.03-1.52-0.79-1.75-2.08-3.27c-0.62-0.74-2.51-0.48-4.81,0.22c-6.67,2.03-12.29,6.6-15.78,12.63
		c-3.22,5.58-8.38,12.56-14.69,14.24c-10.91,2.91-10.01,4.73-14.03,15.82c-4.02,11.1-14.16,12.91-26.89,26
		C966.92,835.27,968.56,903.91,968.56,903.91z"/>
	<path class="st22" d="M1005.76,817.19c7.32-2.9,14.6-6.07,20.09-9.56c15.46-9.82,30.19-41.47,31.46-47.11
		c0.45-1.96,0.64-3.15,0.63-3.97c-0.04,0.37-0.76,5.38-8.82,8.71c-8.36,3.45-10,3.45-11.09,8.73c-1.09,5.27-2.01,10.91-6.37,12
		c-4.36,1.09-7.09-3.82-10.54,4.18c-3.46,8-5.11,10.73-8.28,11.82c-3.18,1.09-5.59-0.55-6.3,5.64
		C1006.12,811.4,1005.88,814.98,1005.76,817.19z"/>
	<g>
		<path class="st8" d="M960.11,975.05c19.86,0,28.24-15.86,31.55-32.69c-19.47-7.38-43.99-19.21-64.33-37.04
			C926.12,917.27,922.2,975.05,960.11,975.05z"/>
	</g>
</g>
<g>
	<path class="st20" d="M123.25,966.93c-14.09,0-20.04-11.25-22.38-23.19c-2.64-13.47-0.7-27.8-0.7-27.8h46.17
		c0,0,0.07,0.55,0.17,1.52C147.37,925.94,150.14,966.93,123.25,966.93z"/>
	<path class="st21" d="M146.33,915.94c0,1.01-10.34,1.83-23.09,1.83c-12.75,0-23.09-0.82-23.09-1.83s10.34-1.83,23.09-1.83
		C136,914.11,146.33,914.93,146.33,915.94z"/>
	<path class="st9" d="M65.77,787.95c0,0,24.35,37.04,38.95,59.65c14.61,22.61,18.43,27.3,20.17,34.61c1.74,7.3,3.3,34.26,3.3,34.26
		h1.91c0,0,1.22-22.78-1.04-30.26c-2.26-7.48-1.39-10.43-0.35-18.26c1.04-7.83,2.43-20.35-5.48-29.04
		c-7.91-8.69-5.83-17.22-8.61-22.95c-2.78-5.74-24.35-12.69-27.13-18.61C84.73,791.43,72.56,787.78,65.77,787.95z"/>
	<path class="st22" d="M65.77,787.95c0,0,7.65,8.7,12.87,11.65c5.22,2.96,7.65,0.35,11.65,7.48c4,7.13,4.15,10.26,7.82,13.91
		c3.66,3.65,8.01,3.83,8.36,11.83c0.35,8-1.74,14.78-1.74,14.78S67.34,789.86,65.77,787.95z"/>
	<path class="st9" d="M122.47,916.46h-1.74c0,0-0.52-11.82-5.22-17.56c-3.03-3.7-15.89-7.91-28.61-12.95
		c-7-2.78-13.96-5.8-19.21-9.14c-14.78-9.39-28.87-39.65-30.08-45.04c-0.43-1.88-0.62-3.02-0.61-3.8v-0.02
		c0.03-1.45,0.75-1.67,1.99-3.13c0.6-0.71,2.4-0.46,4.6,0.21c6.38,1.94,11.75,6.31,15.09,12.08c3.08,5.34,8.01,12.01,14.05,13.62
		c10.43,2.79,9.57,4.52,13.42,15.13c3.84,10.61,13.54,12.34,25.71,24.86C124.03,903.24,122.47,916.46,122.47,916.46z"/>
	<path class="st22" d="M86.9,885.95c-7-2.78-13.96-5.8-19.21-9.14c-14.78-9.39-28.87-39.65-30.08-45.04
		c-0.43-1.88-0.62-3.02-0.61-3.8c0.04,0.36,0.73,5.14,8.43,8.33c7.99,3.3,9.56,3.3,10.6,8.35c1.04,5.04,1.92,10.43,6.09,11.48
		c4.17,1.04,6.78-3.65,10.08,4c3.31,7.65,4.88,10.26,7.92,11.3c3.04,1.04,5.34-0.52,6.02,5.39
		C86.55,880.42,86.78,883.85,86.9,885.95z"/>
	<g>
		<path class="st8" d="M123.25,966.93c-14.09,0-20.04-11.25-22.38-23.19c13.81-5.24,31.21-13.63,45.64-26.28
			C147.37,925.94,150.14,966.93,123.25,966.93z"/>
	</g>
</g>
</svg>
